<svg width="30" height="30" viewBox="0 0 30 30" fill="none" xmlns="http://www.w3.org/2000/svg">
<path d="M14.277 0.509003C10.014 0.912003 6.54502 2.724 4.00102 5.876C-1.86698 13.146 0.517021 23.926 8.90702 28.061C17.381 32.237 27.557 27.18 29.456 17.849C31.135 9.597 25.3 1.576 16.889 0.575003C16.448 0.523003 14.622 0.476003 14.277 0.509003V0.509003ZM15.927 3.987C19.995 4.143 23.946 7.018 25.479 10.937C28.749 19.295 21.282 27.872 12.593 25.736C8.03702 24.616 4.51802 20.434 4.26202 15.835C4.25002 15.625 4.23302 15.343 4.22402 15.207C4.06502 12.822 5.17902 9.794 6.97602 7.727C9.02802 5.367 12.565 3.768 15.309 3.96C15.379 3.965 15.656 3.977 15.926 3.988L15.927 3.987Z" fill="#6C8A4D"/>
</svg>
